<svg width="17" height="17" viewBox="0 0 17 17" fill="none" xmlns="http://www.w3.org/2000/svg">
<g clip-path="url(#clip0_547_3503)">
<path d="M14.1667 6.375H7.79167C7.00926 6.375 6.375 7.00926 6.375 7.79167V14.1667C6.375 14.9491 7.00926 15.5833 7.79167 15.5833H14.1667C14.9491 15.5833 15.5833 14.9491 15.5833 14.1667V7.79167C15.5833 7.00926 14.9491 6.375 14.1667 6.375Z" stroke="#ABB9FF" stroke-width="2" stroke-linecap="round" stroke-linejoin="round"/>
<path d="M3.54166 10.6251H2.83332C2.4576 10.6251 2.09727 10.4758 1.83159 10.2101C1.56591 9.94447 1.41666 9.58414 1.41666 9.20842V2.83341C1.41666 2.45769 1.56591 2.09736 1.83159 1.83168C2.09727 1.566 2.4576 1.41675 2.83332 1.41675H9.20832C9.58405 1.41675 9.94438 1.566 10.2101 1.83168C10.4757 2.09736 10.625 2.45769 10.625 2.83341V3.54175" stroke="#ABB9FF" stroke-width="2" stroke-linecap="round" stroke-linejoin="round"/>
</g>
<defs>
<clipPath id="clip0_547_3503">
<rect width="17" height="17" fill="white"/>
</clipPath>
</defs>
</svg>
