<svg width="27" height="27" viewBox="0 0 27 27" fill="none" xmlns="http://www.w3.org/2000/svg">
<g clip-path="url(#clip0_513_3210)">
<path fill-rule="evenodd" clip-rule="evenodd" d="M25.875 3.375C26.4963 3.375 27 3.87868 27 4.5V11.25C27 11.8713 26.4963 12.375 25.875 12.375H19.125C18.5037 12.375 18 11.8713 18 11.25C18 10.6287 18.5037 10.125 19.125 10.125H24.75V4.5C24.75 3.87868 25.2537 3.375 25.875 3.375Z" fill="#F7F8FF"/>
<path fill-rule="evenodd" clip-rule="evenodd" d="M0 15.75C0 15.1287 0.50368 14.625 1.125 14.625H7.875C8.49632 14.625 9 15.1287 9 15.75C9 16.3713 8.49632 16.875 7.875 16.875H2.25V22.5C2.25 23.1213 1.74632 23.625 1.125 23.625C0.50368 23.625 0 23.1213 0 22.5V15.75Z" fill="#F7F8FF"/>
<path fill-rule="evenodd" clip-rule="evenodd" d="M15.9945 4.85709C14.5341 4.43466 12.9904 4.38907 11.5076 4.72458C10.0248 5.06009 8.65111 5.76575 7.51478 6.77574C6.37844 7.78572 5.51648 9.06711 5.00931 10.5003C4.80204 11.086 4.15919 11.3928 3.57346 11.1856C2.98773 10.9783 2.68093 10.3355 2.8882 9.74973C3.52216 7.95821 4.59961 6.35648 6.02003 5.094C7.44045 3.83152 9.15753 2.94943 11.0111 2.53005C12.8646 2.11067 14.7941 2.16765 16.6197 2.6957C18.4394 3.22206 20.0967 4.19938 21.4379 5.53693L26.6454 10.4302C27.0982 10.8556 27.1203 11.5676 26.6949 12.0204C26.2694 12.4732 25.5574 12.4953 25.1046 12.0699L19.8846 7.16487C19.8761 7.15682 19.8676 7.14864 19.8593 7.14032C18.7846 6.06503 17.4549 5.27953 15.9945 4.85709ZM0.305156 14.9797C0.730622 14.5269 1.44259 14.5047 1.89538 14.9302L7.11538 19.8352C7.12395 19.8432 7.13239 19.8514 7.1407 19.8597C8.21545 20.935 9.54507 21.7205 11.0055 22.143C12.4659 22.5654 14.0096 22.611 15.4924 22.2755C16.9752 21.94 18.3489 21.2343 19.4852 20.2243C20.6216 19.2143 21.4835 17.9329 21.9907 16.4997C22.198 15.914 22.8408 15.6072 23.4266 15.8145C24.0123 16.0217 24.3191 16.6646 24.1118 17.2503C23.4778 19.0418 22.4004 20.6436 20.98 21.906C19.5596 23.1685 17.8425 24.0506 15.989 24.47C14.1354 24.8894 12.2059 24.8324 10.3803 24.3044C8.56057 23.778 6.9033 22.8007 5.56212 21.4631L0.35463 16.5699C-0.0981594 16.1444 -0.120309 15.4324 0.305156 14.9797Z" fill="#F7F8FF"/>
</g>
<defs>
<clipPath id="clip0_513_3210">
<rect width="27" height="27" fill="white"/>
</clipPath>
</defs>
</svg>
