<svg width="45" height="45" viewBox="0 0 45 45" fill="none" xmlns="http://www.w3.org/2000/svg">
<path fill-rule="evenodd" clip-rule="evenodd" d="M5.625 26.25C6.66053 26.25 7.5 27.0895 7.5 28.125V35.625C7.5 36.1223 7.69754 36.5992 8.04917 36.9508C8.4008 37.3025 8.87772 37.5 9.375 37.5H35.625C36.1223 37.5 36.5992 37.3025 36.9508 36.9508C37.3025 36.5992 37.5 36.1223 37.5 35.625V28.125C37.5 27.0895 38.3395 26.25 39.375 26.25C40.4105 26.25 41.25 27.0895 41.25 28.125V35.625C41.25 37.1168 40.6574 38.5476 39.6025 39.6025C38.5476 40.6574 37.1168 41.25 35.625 41.25H9.375C7.88316 41.25 6.45242 40.6574 5.39752 39.6025C4.34263 38.5476 3.75 37.1168 3.75 35.625V28.125C3.75 27.0895 4.58947 26.25 5.625 26.25Z" fill="white"/>
<path fill-rule="evenodd" clip-rule="evenodd" d="M21.1742 4.29917C21.9064 3.56694 23.0936 3.56694 23.8258 4.29917L33.2008 13.6742C33.9331 14.4064 33.9331 15.5936 33.2008 16.3258C32.4686 17.0581 31.2814 17.0581 30.5492 16.3258L22.5 8.27665L14.4508 16.3258C13.7186 17.0581 12.5314 17.0581 11.7992 16.3258C11.0669 15.5936 11.0669 14.4064 11.7992 13.6742L21.1742 4.29917Z" fill="white"/>
<path fill-rule="evenodd" clip-rule="evenodd" d="M22.5 3.75C23.5355 3.75 24.375 4.58947 24.375 5.625V28.125C24.375 29.1605 23.5355 30 22.5 30C21.4645 30 20.625 29.1605 20.625 28.125V5.625C20.625 4.58947 21.4645 3.75 22.5 3.75Z" fill="white"/>
</svg>
