<svg width="17" height="17" viewBox="0 0 17 17" fill="none" xmlns="http://www.w3.org/2000/svg">
<path fill-rule="evenodd" clip-rule="evenodd" d="M8.55751 1.77732C8.69459 2.02055 8.676 2.32161 8.51005 2.54613C7.90497 3.36472 7.61381 4.3733 7.68951 5.38842C7.76521 6.40354 8.20275 7.35777 8.92254 8.07757C9.64233 8.79736 10.5966 9.23489 11.6117 9.3106C12.6268 9.3863 13.6354 9.09513 14.454 8.49006C14.6785 8.3241 14.9796 8.30552 15.2228 8.4426C15.466 8.57968 15.606 8.84685 15.5803 9.12486C15.4565 10.4646 14.9537 11.7413 14.1308 12.8057C13.3079 13.87 12.1988 14.678 10.9334 15.1351C9.66805 15.5922 8.29866 15.6794 6.9855 15.3866C5.67234 15.0938 4.46973 14.4331 3.51839 13.4817C2.56704 12.5304 1.90631 11.3278 1.61351 10.0146C1.3207 8.70145 1.40794 7.33205 1.86501 6.06667C2.32207 4.80128 3.13007 3.69223 4.19444 2.86929C5.25882 2.04636 6.53555 1.54357 7.87525 1.41977C8.15326 1.39407 8.42043 1.53409 8.55751 1.77732ZM6.59912 3.14443C6.04831 3.34372 5.52898 3.62819 5.06097 3.99004C4.20947 4.64839 3.56307 5.53563 3.19742 6.54794C2.83176 7.56025 2.76198 8.65576 2.99622 9.70629C3.23046 10.7568 3.75905 11.7189 4.52012 12.48C5.2812 13.2411 6.24329 13.7696 7.29381 14.0039C8.34434 14.2381 9.43985 14.1683 10.4522 13.8027C11.4645 13.437 12.3517 12.7906 13.0101 11.9391C13.3719 11.4711 13.6564 10.9518 13.8557 10.401C13.1097 10.6709 12.3096 10.7832 11.5063 10.7233C10.1528 10.6224 8.88053 10.039 7.9208 9.0793C6.96108 8.11958 6.3777 6.84727 6.27677 5.49377C6.21687 4.69054 6.32924 3.89039 6.59912 3.14443Z" fill="#ABB9FF"/>
</svg>
