<svg width="17" height="17" viewBox="0 0 17 17" fill="none" xmlns="http://www.w3.org/2000/svg">
<path fill-rule="evenodd" clip-rule="evenodd" d="M9.2396 2C9.2396 1.58579 8.90382 1.25 8.4896 1.25C8.07539 1.25 7.7396 1.58579 7.7396 2C7.7396 3.17687 7.57726 4.61423 6.81365 5.7441C6.08804 6.81774 4.72417 7.75 2 7.75C1.58579 7.75 1.25 8.08579 1.25 8.5C1.25 8.91421 1.58579 9.25 2 9.25C3.15667 9.25 4.60237 9.44746 5.74157 10.2343C6.83004 10.9861 7.7604 12.3608 7.7604 15C7.7604 15.4142 8.09618 15.75 8.5104 15.75C8.92461 15.75 9.2604 15.4142 9.2604 15C9.2604 12.3592 10.1867 10.9846 11.27 10.2335C12.4036 9.44746 13.8434 9.25 15 9.25C15.4142 9.25 15.75 8.91421 15.75 8.5C15.75 8.08579 15.4142 7.75 15 7.75C12.2758 7.75 10.9057 6.81756 10.1748 5.74242C9.40645 4.6121 9.2396 3.17451 9.2396 2Z" fill="#1B1B1B"/>
</svg>
