<svg width="27" height="27" viewBox="0 0 27 27" fill="none" xmlns="http://www.w3.org/2000/svg">
<path fill-rule="evenodd" clip-rule="evenodd" d="M3.375 15.75C3.375 15.1287 3.87868 14.625 4.5 14.625H11.25C11.8713 14.625 12.375 15.1287 12.375 15.75V22.5C12.375 23.1213 11.8713 23.625 11.25 23.625C10.6287 23.625 10.125 23.1213 10.125 22.5V16.875H4.5C3.87868 16.875 3.375 16.3713 3.375 15.75Z" fill="white"/>
<path fill-rule="evenodd" clip-rule="evenodd" d="M15.75 3.375C16.3713 3.375 16.875 3.87868 16.875 4.5V10.125H22.5C23.1213 10.125 23.625 10.6287 23.625 11.25C23.625 11.8713 23.1213 12.375 22.5 12.375H15.75C15.1287 12.375 14.625 11.8713 14.625 11.25V4.5C14.625 3.87868 15.1287 3.375 15.75 3.375Z" fill="white"/>
<path fill-rule="evenodd" clip-rule="evenodd" d="M24.4205 2.5795C24.8598 3.01884 24.8598 3.73116 24.4205 4.1705L16.5455 12.0455C16.1062 12.4848 15.3938 12.4848 14.9545 12.0455C14.5152 11.6062 14.5152 10.8938 14.9545 10.4545L22.8295 2.5795C23.2688 2.14017 23.9812 2.14017 24.4205 2.5795Z" fill="white"/>
<path fill-rule="evenodd" clip-rule="evenodd" d="M12.0455 14.9545C12.4848 15.3938 12.4848 16.1062 12.0455 16.5455L4.1705 24.4205C3.73116 24.8598 3.01884 24.8598 2.5795 24.4205C2.14017 23.9812 2.14017 23.2688 2.5795 22.8295L10.4545 14.9545C10.8938 14.5152 11.6062 14.5152 12.0455 14.9545Z" fill="white"/>
</svg>
