<svg width="18" height="18" viewBox="0 0 18 18" fill="none" xmlns="http://www.w3.org/2000/svg">
<g clip-path="url(#clip0_513_3391)">
<path fill-rule="evenodd" clip-rule="evenodd" d="M9.00005 2.46434C5.39048 2.46434 2.46434 5.39048 2.46434 9.00005C2.46434 12.6096 5.39048 15.5358 9.00005 15.5358C12.6096 15.5358 15.5358 12.6096 15.5358 9.00005C15.5358 5.39048 12.6096 2.46434 9.00005 2.46434ZM0.535767 9.00005C0.535767 4.32536 4.32536 0.535767 9.00005 0.535767C13.6747 0.535767 17.4643 4.32536 17.4643 9.00005C17.4643 13.6747 13.6747 17.4643 9.00005 17.4643C4.32536 17.4643 0.535767 13.6747 0.535767 9.00005Z" fill="#ABB9FF"/>
<path fill-rule="evenodd" clip-rule="evenodd" d="M9.00005 3.53577C9.53261 3.53577 9.96434 3.96749 9.96434 4.50005V8.40409L12.4313 9.63757C12.9076 9.87574 13.1007 10.455 12.8625 10.9313C12.6244 11.4076 12.0451 11.6007 11.5688 11.3625L8.56881 9.86254C8.24213 9.69919 8.03577 9.3653 8.03577 9.00005V4.50005C8.03577 3.96749 8.46749 3.53577 9.00005 3.53577Z" fill="#ABB9FF"/>
</g>
<defs>
<clipPath id="clip0_513_3391">
<rect width="18" height="18" fill="white"/>
</clipPath>
</defs>
</svg>
