<svg width="27" height="27" viewBox="0 0 27 27" fill="none" xmlns="http://www.w3.org/2000/svg">
<path fill-rule="evenodd" clip-rule="evenodd" d="M13.5 3.375C7.90812 3.375 3.375 7.90812 3.375 13.5C3.375 19.0919 7.90812 23.625 13.5 23.625C19.0919 23.625 23.625 19.0919 23.625 13.5C23.625 7.90812 19.0919 3.375 13.5 3.375ZM1.125 13.5C1.125 6.66548 6.66548 1.125 13.5 1.125C20.3345 1.125 25.875 6.66548 25.875 13.5C25.875 20.3345 20.3345 25.875 13.5 25.875C6.66548 25.875 1.125 20.3345 1.125 13.5Z" fill="white"/>
<path fill-rule="evenodd" clip-rule="evenodd" d="M9.89647 15.0704C9.52277 14.5774 8.8205 14.4784 8.32501 14.8501C7.82795 15.2229 7.72721 15.928 8.10001 16.4251L9.00001 15.7501C8.10001 16.4251 8.10028 16.4254 8.10055 16.4258L8.10114 16.4266L8.10244 16.4283L8.10552 16.4324L8.11363 16.443L8.13759 16.4736C8.15699 16.4981 8.18326 16.5306 8.21629 16.57C8.28226 16.6486 8.37563 16.7551 8.49539 16.88C8.73397 17.129 9.08262 17.4569 9.53362 17.7849C10.4313 18.4378 11.7838 19.1251 13.5 19.1251C15.2162 19.1251 16.5687 18.4378 17.4664 17.7849C17.9174 17.4569 18.266 17.129 18.5046 16.88C18.6244 16.7551 18.7177 16.6486 18.7837 16.57C18.8167 16.5306 18.843 16.4981 18.8624 16.4736L18.8864 16.443L18.8945 16.4324L18.8976 16.4283L18.8989 16.4266L18.8995 16.4258C18.8997 16.4254 18.9 16.4251 18 15.7501L18.9 16.4251C19.2728 15.928 19.1721 15.2229 18.675 14.8501C18.1795 14.4784 17.4772 14.5774 17.1035 15.0704L17.0983 15.077C17.0916 15.0855 17.0789 15.1013 17.0603 15.1235C17.023 15.168 16.9625 15.2373 16.8802 15.3232C16.7144 15.4962 16.4654 15.7307 16.143 15.9652C15.4938 16.4374 14.5963 16.8751 13.5 16.8751C12.4037 16.8751 11.5062 16.4374 10.857 15.9652C10.5346 15.7307 10.2856 15.4962 10.1199 15.3232C10.0375 15.2373 9.97703 15.168 9.93973 15.1235C9.92112 15.1013 9.90839 15.0855 9.90169 15.077L9.89647 15.0704Z" fill="white"/>
<path fill-rule="evenodd" clip-rule="evenodd" d="M9 10.125C9 9.50368 9.50368 9 10.125 9H10.1363C10.7576 9 11.2613 9.50368 11.2613 10.125C11.2613 10.7463 10.7576 11.25 10.1363 11.25H10.125C9.50368 11.25 9 10.7463 9 10.125Z" fill="white"/>
<path fill-rule="evenodd" clip-rule="evenodd" d="M15.75 10.125C15.75 9.50368 16.2537 9 16.875 9H16.8863C17.5076 9 18.0113 9.50368 18.0113 10.125C18.0113 10.7463 17.5076 11.25 16.8863 11.25H16.875C16.2537 11.25 15.75 10.7463 15.75 10.125Z" fill="white"/>
</svg>
