<svg width="27" height="27" viewBox="0 0 27 27" fill="none" xmlns="http://www.w3.org/2000/svg">
<path fill-rule="evenodd" clip-rule="evenodd" d="M15.75 3.375C15.75 2.75368 16.2537 2.25 16.875 2.25H23.625C24.2463 2.25 24.75 2.75368 24.75 3.375V10.125C24.75 10.7463 24.2463 11.25 23.625 11.25C23.0037 11.25 22.5 10.7463 22.5 10.125V4.5H16.875C16.2537 4.5 15.75 3.99632 15.75 3.375Z" fill="white"/>
<path fill-rule="evenodd" clip-rule="evenodd" d="M3.375 15.75C3.99632 15.75 4.5 16.2537 4.5 16.875V22.5H10.125C10.7463 22.5 11.25 23.0037 11.25 23.625C11.25 24.2463 10.7463 24.75 10.125 24.75H3.375C2.75368 24.75 2.25 24.2463 2.25 23.625V16.875C2.25 16.2537 2.75368 15.75 3.375 15.75Z" fill="white"/>
<path fill-rule="evenodd" clip-rule="evenodd" d="M24.4205 2.5795C24.8598 3.01884 24.8598 3.73116 24.4205 4.1705L16.5455 12.0455C16.1062 12.4848 15.3938 12.4848 14.9545 12.0455C14.5152 11.6062 14.5152 10.8938 14.9545 10.4545L22.8295 2.5795C23.2688 2.14017 23.9812 2.14017 24.4205 2.5795Z" fill="white"/>
<path fill-rule="evenodd" clip-rule="evenodd" d="M12.0455 14.9545C12.4848 15.3938 12.4848 16.1062 12.0455 16.5455L4.1705 24.4205C3.73116 24.8598 3.01884 24.8598 2.5795 24.4205C2.14017 23.9812 2.14017 23.2688 2.5795 22.8295L10.4545 14.9545C10.8938 14.5152 11.6062 14.5152 12.0455 14.9545Z" fill="white"/>
</svg>
